<?xml version="1.0" standalone="no"?>
<!DOCTYPE svg PUBLIC "-//W3C//DTD SVG 20010904//EN"
 "http://www.w3.org/TR/2001/REC-SVG-20010904/DTD/svg10.dtd">
<svg version="1.0" xmlns="http://www.w3.org/2000/svg"
 width="700.000000pt" height="700.000000pt" viewBox="0 0 700.000000 700.000000"
 preserveAspectRatio="xMidYMid meet">
<metadata>
Created by potrace 1.14, written by Peter Selinger 2001-2017
</metadata>
<g transform="translate(0.000000,700.000000) scale(0.100000,-0.100000)"
fill="#000000" stroke="none">
<path d="M3466 6339 c-69 -11 -125 -53 -157 -116 -25 -49 -27 -60 -27 -205 -1
-84 -1 -177 -2 -205 l0 -53 -196 0 c-229 0 -261 -7 -321 -66 -105 -105 -75
-279 59 -350 28 -15 64 -18 241 -20 114 -1 210 -4 213 -7 3 -3 6 -130 6 -282
l0 -278 -1150 -1151 c-815 -814 -1156 -1162 -1167 -1188 -70 -170 90 -344 268
-291 43 13 69 33 174 136 l123 120 0 -644 0 -645 -348 0 -349 0 -54 -27 c-109
-54 -153 -181 -99 -286 23 -47 62 -85 108 -107 35 -17 161 -18 2712 -18 2978
1 2709 -6 2782 70 61 62 76 155 40 236 -23 52 -51 81 -107 111 -38 20 -55 21
-392 21 l-353 0 0 645 c0 354 2 642 4 640 193 -192 248 -239 294 -252 93 -28
183 2 241 78 44 59 54 148 24 214 -15 32 -312 335 -1167 1190 l-1147 1148 0
277 c0 153 2 280 5 283 3 3 97 7 208 7 163 2 210 5 240 18 143 63 172 268 52
366 -55 46 -93 52 -310 52 l-199 0 0 213 c0 195 -2 215 -21 251 -43 83 -136
129 -228 115z m805 -2754 l759 -759 0 -866 0 -866 -362 1 -363 0 -1 481 c-1
264 -4 513 -8 553 -17 175 -100 347 -230 476 -74 74 -113 103 -197 147 -67 36
-69 37 -159 62 -384 109 -805 -101 -954 -478 -57 -143 -57 -143 -59 -786 l-2
-455 -362 0 -363 -1 0 866 0 865 763 763 c419 419 766 761 770 759 5 -1 350
-344 768 -762z m-635 -1206 c38 -14 74 -39 113 -78 64 -63 97 -124 109 -203 4
-29 7 -267 7 -528 l0 -475 -362 0 c-242 -1 -364 3 -366 10 -2 5 -3 231 -2 500
2 511 4 536 46 613 49 88 152 162 252 181 60 12 139 4 203 -20z"/>
</g>
</svg>
